<?xml version="1.0" encoding="UTF-8" standalone="no" ?>
<!DOCTYPE svg PUBLIC "-//W3C//DTD SVG 1.1//EN" "http://www.w3.org/Graphics/SVG/1.1/DTD/svg11.dtd">
<svg xmlns="http://www.w3.org/2000/svg" xmlns:xlink="http://www.w3.org/1999/xlink" version="1.1" width="40" height="40" viewBox="0 0 40 40" xml:space="preserve">
<desc>Created with Fabric.js 5.2.4</desc>
<defs>
</defs>
<g transform="matrix(1 0 0 1 20 20)" id="8987b09a-e169-4da6-85d0-74d2e49a86c4"  >
<rect style="stroke: none; stroke-width: 1; stroke-dasharray: none; stroke-linecap: butt; stroke-dashoffset: 0; stroke-linejoin: miter; stroke-miterlimit: 4; fill: rgb(255,255,255); fill-rule: nonzero; opacity: 1; visibility: hidden;" vector-effect="non-scaling-stroke"  x="-20" y="-20" rx="0" ry="0" width="40" height="40" />
</g>
<g transform="matrix(Infinity NaN NaN Infinity 0 0)" id="049f4611-d530-46f8-8520-743085c315e1"  >
</g>
<g transform="matrix(0.04 0 0 0.04 40 40)"  >
<g style="" vector-effect="non-scaling-stroke"   >
		<g transform="matrix(1 0 0 1 0 0)"  >
<path style="stroke: none; stroke-width: 1; stroke-dasharray: none; stroke-linecap: butt; stroke-dashoffset: 0; stroke-linejoin: miter; stroke-miterlimit: 4; fill: rgb(0,0,0); fill-rule: evenodd; opacity: 0.915;" vector-effect="non-scaling-stroke"  transform=" translate(-255.48, -255.8)" d="M 244.5 9.5 C 277.486 7.39433 299.653 21.7277 311 52.5 C 317.125 83.5794 306.458 106.913 279 122.5 C 278.809 139.188 279.309 155.855 280.5 172.5 C 293.504 172.333 306.504 172.5 319.5 173 C 334.117 177.983 339.95 188.15 337 203.5 C 334.649 210.519 330.149 215.686 323.5 219 C 309.559 220.429 295.559 220.929 281.5 220.5 C 283.595 281.5 285.762 342.5 288 403.5 C 324.223 395.479 354.723 377.813 379.5 350.5 C 372.599 348.352 365.599 346.519 358.5 345 C 355.424 342.388 354.757 339.221 356.5 335.5 C 382.833 318.333 409.167 301.167 435.5 284 C 438.173 282.296 441.007 281.129 444 280.5 C 447.06 280.225 449.06 281.558 450 284.5 C 450.149 317.834 449.816 351.167 449 384.5 C 446.713 388.53 443.546 389.364 439.5 387 C 433.667 381.167 427.833 375.333 422 369.5 C 393.963 425.518 349.13 459.685 287.5 472 C 278.53 481.97 269.197 491.637 259.5 501 C 257.635 502.301 255.635 502.635 253.5 502 C 243.196 492.697 233.196 483.03 223.5 473 C 161.891 460.636 117.058 426.469 89 370.5 C 83.1667 376.333 77.3333 382.167 71.5 388 C 68.208 388.936 65.208 388.436 62.5 386.5 C 61.2042 352.543 60.7042 318.543 61 284.5 C 63.0527 280.708 66.2194 279.542 70.5 281 C 97.925 298.795 125.092 316.961 152 335.5 C 154.052 338.46 153.886 341.293 151.5 344 C 143.974 346.465 136.307 348.465 128.5 350 C 153.633 377.07 184.3 394.57 220.5 402.5 C 222.833 341.832 225.167 281.165 227.5 220.5 C 213.427 220.947 199.427 220.447 185.5 219 C 170.668 210.203 167.168 198.036 175 182.5 C 177.896 178.939 181.396 176.106 185.5 174 C 199.774 172.57 214.108 172.07 228.5 172.5 C 229.231 155.825 229.731 139.158 230 122.5 C 199.81 105.433 189.476 80.0997 199 46.5 C 207.97 26.4453 223.137 14.112 244.5 9.5 Z M 251.5 21.5 C 277.901 23.0679 294.067 36.7346 300 62.5 C 301.371 87.2721 290.537 104.105 267.5 113 C 266.874 113.75 266.374 114.584 266 115.5 C 266.128 137.171 266.795 158.838 268 180.5 C 268.465 181.931 269.299 183.097 270.5 184 C 286.545 184.078 302.545 184.745 318.5 186 C 325.32 190.461 326.82 196.294 323 203.5 C 321.786 205.049 320.286 206.215 318.5 207 C 302.887 208.271 287.22 208.937 271.5 209 C 270.667 209.833 269.833 210.667 269 211.5 C 270.759 278.84 273.092 346.174 276 413.5 C 279.257 416.428 283.091 417.262 287.5 416 C 333.047 407.33 369.88 384.83 398 348.5 C 399.041 345.364 398.207 342.864 395.5 341 C 389.793 339.49 384.126 337.823 378.5 336 C 398.085 323.625 417.585 311.125 437 298.5 C 437.667 321.167 437.667 343.833 437 366.5 C 432.5 362 428 357.5 423.5 353 C 421.167 352.333 418.833 352.333 416.5 353 C 389.861 412.344 344.528 448.344 280.5 461 C 271.958 469.374 263.625 477.874 255.5 486.5 C 246.681 478.181 238.014 469.681 229.5 461 C 182.444 452.556 144.61 429.389 116 391.5 C 108.201 379.408 101.035 366.908 94.5 354 C 92.1667 353.333 89.8333 353.333 87.5 354 C 83 358.5 78.5 363 74 367.5 C 73.3333 344.5 73.3333 321.5 74 298.5 C 92.5618 311.393 111.395 323.893 130.5 336 C 124.548 337.791 118.548 339.458 112.5 341 C 110.653 343.579 110.153 346.412 111 349.5 C 139.886 384.541 176.72 406.707 221.5 416 C 225.317 417.023 228.817 416.523 232 414.5 C 235.188 348.233 238.022 281.9 240.5 215.5 C 240.167 212.99 239.167 210.823 237.5 209 C 222.301 208.81 207.135 208.31 192 207.5 C 184.214 204.154 181.881 198.487 185 190.5 C 186.543 188.622 188.376 187.122 190.5 186 C 206.455 184.745 222.455 184.078 238.5 184 C 239 183.5 239.5 183 240 182.5 C 241.666 160.515 242.666 138.515 243 116.5 C 242.535 115.069 241.701 113.903 240.5 113 C 216.46 102.762 205.96 84.5952 209 58.5 C 215.306 37.0215 229.472 24.6881 251.5 21.5 Z M 250.5 50.5 C 263.802 48.9719 271.468 54.8052 273.5 68 C 268.978 84.927 258.978 89.2604 243.5 81 C 236.791 73.79 235.958 65.9566 241 57.5 C 243.529 54.1151 246.696 51.7818 250.5 50.5 Z" stroke-linecap="round" />
</g>
		<g transform="matrix(1 0 0 1 0.02 -187.9)"  >
<path style="stroke: none; stroke-width: 1; stroke-dasharray: none; stroke-linecap: butt; stroke-dashoffset: 0; stroke-linejoin: miter; stroke-miterlimit: 4; fill: rgb(0,0,0); fill-rule: evenodd; opacity: 0.912;" vector-effect="non-scaling-stroke"  transform=" translate(-255.5, -67.91)" d="M 249.5 37.5 C 267.359 36.0054 279.192 43.6721 285 60.5 C 287.398 82.7163 277.565 95.3829 255.5 98.5 C 233.435 95.3829 223.602 82.7163 226 60.5 C 229.787 48.5443 237.621 40.8776 249.5 37.5 Z M 250.5 50.5 C 246.696 51.7818 243.529 54.1151 241 57.5 C 235.958 65.9566 236.791 73.79 243.5 81 C 258.978 89.2604 268.978 84.927 273.5 68 C 271.468 54.8052 263.802 48.9719 250.5 50.5 Z" stroke-linecap="round" />
</g>
</g>
</g>
</svg>